Coordinates
version=1
nRows=5
nColumns=63
inDegrees=yes

Units are S.I. units (second, meters, Newtons, ...)
If the header above contains a line with 'inDegrees', this indicates whether rotational values are in degrees (yes) or radians (no).

endheader
time	pelvis_tilt	pelvis_list	pelvis_rotation	pelvis_tx	pelvis_ty	pelvis_tz	hip_flexion_r	hip_adduction_r	hip_rotation_r	knee_angle_r	knee_angle_r_beta	ankle_angle_r	subtalar_angle_r	mtp_angle_r	hip_flexion_l	hip_adduction_l	hip_rotation_l	knee_angle_l	knee_angle_l_beta	ankle_angle_l	subtalar_angle_l	mtp_angle_l	L5_S1_Flex_Ext	L5_S1_Lat_Bending	L5_S1_axial_rotation	L4_L5_Flex_Ext	L4_L5_Lat_Bending	L4_L5_axial_rotation	L3_L4_Flex_Ext	L3_L4_Lat_Bending	L3_L4_axial_rotation	L2_L3_Flex_Ext	L2_L3_Lat_Bending	L2_L3_axial_rotation	L1_L2_Flex_Ext	L1_L2_Lat_Bending	L1_L2_axial_rotation	L1_T12_Flex_Ext	L1_T12_Lat_Bending	L1_T12_axial_rotation	Abs_r3	Abs_r2	Abs_r1	Abs_t1	Abs_t2	neck_flexion	neck_bending	neck_rotation	arm_flex_r	arm_add_r	arm_rot_r	elbow_flex_r	pro_sup_r	wrist_flex_r	wrist_dev_r	arm_flex_l	arm_add_l	arm_rot_l	elbow_flex_l	pro_sup_l	wrist_flex_l	wrist_dev_l
      0.00000000	     -0.04977624	     -5.05367048	     78.50261138	      0.21564288	      1.03650268	      0.40155853	      0.75358596	      1.18351697	      4.74259826	      5.60627790	      0.09784801	     24.10709290	      5.07460045	      0.00000000	      0.61443879	     -0.87209526	    -14.55124701	      5.56731833	      0.09716804	     27.26611278	      3.42012349	      0.00000000	      0.13170971	      0.64548346	      1.09529321	      0.24459811	      0.85849300	      1.16374903	      0.21638589	      1.56942849	      1.16374903	      0.15053103	      1.56942849	      0.95838156	      0.12230564	      1.31626988	      0.88992573	      0.07525893	      0.99985388	      0.82146991	      0.94078932	      7.30183802	      6.09169224	      0.00000000	      0.00000000	     16.23491340	     -3.42265017	    -25.59016781	     17.91604857	     -6.83653353	     71.99257668	     35.35978626	     15.21933195	     -0.83766661	     11.55304241	     18.05118597	     -1.02498717	     59.96731798	     38.69613502	     62.76711210	     -3.86528144	      7.43580833
      0.01666667	     -0.27080481	     -4.85704587	     78.33742394	      0.21606225	      1.03661149	      0.40045797	      0.56108918	      0.85451877	      4.93297185	      5.92503944	      0.10341145	     24.03509594	      4.15698926	      0.00000000	      0.19371526	     -0.58976830	    -15.25572575	      5.40612152	      0.09435462	     26.87461446	      3.49110053	      0.00000000	      0.11571211	      0.61530269	      1.22099524	      0.21488895	      0.81835258	      1.29730744	      0.19010342	      1.49604697	      1.29730744	      0.13224737	      1.49604697	      1.06837084	      0.10745026	      1.25472525	      0.99205863	      0.06611790	      0.95310387	      0.91574643	      0.82652000	      6.96042711	      6.79080923	      0.00000000	      0.00000000	     16.35973924	     -3.34468714	    -26.40748273	     18.39825896	     -6.85333325	     74.21144066	     35.13056839	     15.96060800	     -0.78027749	     11.69511270	     18.50094976	     -1.12217437	     61.32586643	     38.61120585	     64.58072137	     -3.72359766	      7.75394740
      0.03333333	     -0.49208818	     -4.60225114	     77.95882619	      0.21687076	      1.03680413	      0.39925787	      0.24806972	      0.55117125	      5.68736508	      6.03330786	      0.10530109	     23.93218194	      3.10788583	      0.00000000	     -0.34465135	     -0.27980439	    -16.12447284	      5.11972331	      0.08935603	     26.52042530	      3.78491342	      0.00000000	      0.08904673	      0.58183800	      1.36369242	      0.16536869	      0.77384453	      1.44892320	      0.14629488	      1.41468090	      1.44892320	      0.10177151	      1.41468090	      1.19323087	      0.08268880	      1.18648404	      1.10800009	      0.05088130	      0.90126706	      1.02276931	      0.63605191	      6.58186778	      7.58444813	      0.00000000	      0.00000000	     16.48538040	     -3.36126482	    -26.73687635	     18.84104525	     -6.87561955	     76.23725189	     34.87041328	     16.84325329	     -0.11883005	     11.24753733	     18.72918402	     -1.13428642	     62.09038822	     38.48355942	     66.74514099	     -3.90052029	      7.64771928
      0.05000000	     -0.61733779	     -4.62318173	     77.61610091	      0.21795287	      1.03663263	      0.39810300	     -0.01362234	      0.61085607	      9.83189859	      5.65196990	      0.09864548	     22.73260853	     -2.48308336	      0.00000000	     -0.50711131	     -0.22575362	    -17.80376846	      5.03945651	      0.08795511	     26.54523994	      5.38019361	      0.00000000	      0.10050594	      0.56360835	      1.43795153	      0.18664958	      0.74959910	      1.52782350	      0.16512121	      1.37035733	      1.52782350	      0.11486824	      1.37035733	      1.25820758	      0.09332982	      1.14931014	      1.16833561	      0.05742909	      0.87302933	      1.07846364	      0.71790388	      6.37565034	      7.99745500	      0.00000000	      0.00000000	     16.79972556	     -3.32406252	    -26.13542419	     19.14981534	     -6.74617271	     77.86937861	     34.34257528	     19.82743851	      1.20536038	      9.99441965	     18.01193793	     -1.15508675	     60.00380066	     38.83174001	     72.05357534	     -3.73450702	      7.94436663
      0.06666667	     -0.77301848	     -4.52968108	     77.10618552	      0.21909967	      1.03658043	      0.39730911	     -0.10393324	      0.41119048	     10.10210639	      5.69011446	      0.09931123	     22.91085948	     -2.12354868	      0.00000000	     -0.81760116	     -0.03210879	    -18.64865354	      4.79655661	      0.08371571	     26.36540432	      5.82216373	      0.00000000	      0.08868070	      0.53763301	      1.55571886	      0.16468893	      0.71505190	      1.65295129	      0.14569353	      1.30720089	      1.65295129	      0.10135317	      1.30720089	      1.36125400	      0.08234890	      1.09634123	      1.26402157	      0.05067215	      0.83279353	      1.16678914	      0.63343739	      6.08181209	      8.65244158	      0.00000000	      0.00000000	     17.09625226	     -3.29229064	    -25.51198972	     19.17311766	     -6.77044922	     78.27602542	     34.50642877	     18.57203148	      1.17576398	      9.96564154	     17.90720915	     -1.24497141	     59.84068580	     38.99084386	     73.42776008	     -4.01028730	      7.74137376
